<svg enable-background="new 0 0 1378.7 248.5" viewBox="0 0 1378.7 248.5" xmlns="http://www.w3.org/2000/svg"><path d="m0 0h1348.5v248.5h-1348.5z" fill="none"/><path d="m50 8v9.8h-38.3v195.3h14.2v-181.2h24.1v198l93.8-16.9v-27.6-160.5zm17.2 118.6c-3.2 0-5.7-3.3-5.7-7.4s2.6-7.4 5.7-7.4 5.7 3.3 5.7 7.4c.1 4.1-2.5 7.4-5.7 7.4z"/><g enable-background="new"><path d="m314.8 161.5c0 29.5-20.8 45.8-63.3 45.8h-74.3v-175h69.3c36 0 58.8 15 58.8 44.3 0 22.5-13.5 36-34.5 41 29.2 3.9 44 18.7 44 43.9zm-132.5-124.5v79h65.3c33.3 0 52.8-13.5 52.8-39.5s-19.6-39.5-52.9-39.5zm127.5 124.5c0-28.3-20-40.8-57.3-40.8h-70.3v81.8h70.3c37.3 0 57.3-12.7 57.3-41z"/><path d="m433 122.5v84.8h-5v-27.5c-8.3 17.3-25 28.3-49.3 28.3-29 0-45.8-14.5-45.8-36.3 0-18.5 11.5-34.8 46-34.8h49v-14.3c0-27-14.3-40.8-41-40.8-19.3 0-35.8 7.3-47 18l-3.5-3.5c12.3-11.8 30.8-19.3 50.3-19.3 30 .2 46.3 15.9 46.3 45.4zm-5 47.8v-28.5h-49.3c-29.3 0-40.8 12.5-40.8 29.8 0 19.5 15 31.8 40.8 31.8 25-.1 40.8-12.1 49.3-33.1z"/><path d="m459.5 142.5c0-38.5 26.8-65.3 63.5-65.3 18.5 0 35.5 7 46.5 21l-3.5 3.8c-10-13.5-25.8-20-43-20-33.8 0-58.5 24.8-58.5 60.5 0 36 24.8 60.8 58.5 60.8 17.3 0 33-6.5 43-20l3.5 3.8c-11 14-28 21-46.5 21-36.8-.1-63.5-27.1-63.5-65.6z"/><path d="m637.5 132.5-38.3 34.8v40h-5v-185.5h5v139.5l91.3-83.3h7.3l-56.3 51.5 62 77.8h-6.5z"/><path d="m705.7 119.8c0-51.3 39.5-89.5 93.3-89.5 53.3 0 92.8 38 92.8 89.5s-39.5 89.5-92.8 89.5c-53.8 0-93.3-38.3-93.3-89.5zm161 0c0-38.8-29-67.3-67.8-67.3-39.3 0-68.3 28.5-68.3 67.3s29 67.3 68.3 67.3c38.8-.1 67.8-28.6 67.8-67.3z"/><path d="m939.2 63.3v11.5h38.5v19.8h-38v112.8h-24v-112.9h-22.5v-19.7h22.5v-11.8c0-25.8 15.5-42.8 43.8-42.8 10.3 0 20.3 2.5 27 7.8l-7.3 18.3c-5-3.8-11.5-6.3-18.5-6.3-14.2 0-21.5 8-21.5 23.3z"/><path d="m1033.5 20.3c10.3 0 20.3 2.5 27 7.8l-7.3 18.3c-5-3.8-11.5-6.3-18.5-6.3-14.3 0-21.5 8-21.5 23.3v11.5h38.5v19.8h-38v112.8h-24v-113h-22.5v-19.7h22.5v-11.8c0-25.7 15.5-42.7 43.8-42.7zm36.7 13.5c0-8.8 7-15.8 16.3-15.8s16.3 6.8 16.3 15.3c0 9-6.8 16-16.3 16-9.3 0-16.3-6.8-16.3-15.5zm4.3 41h24v132.5h-24z"/><path d="m1120.2 141c0-39.5 29.3-67.5 70-67.5 23.8 0 43.5 9.8 54 28.3l-18.3 11.8c-8.5-13-21.5-19-36-19-26 0-45.5 18.3-45.5 46.5 0 28.8 19.5 46.8 45.5 46.8 14.5 0 27.5-6 36-19l18.3 11.5c-10.5 18.5-30.3 28.5-54 28.5-40.7-.1-70-28.4-70-67.9z"/><path d="m1378.2 149h-107.5c3 23.3 21.8 38.8 48 38.8 15.5 0 28.5-5.3 38.3-16l13.3 15.5c-12 14-30.3 21.5-52.3 21.5-42.8 0-71.3-28.3-71.3-67.8 0-39.3 28.3-67.5 66.5-67.5s65.5 27.5 65.5 68.3c0 2-.2 5-.5 7.2zm-107.5-17.2h85c-2.5-22.3-19.3-38-42.5-38-23 0-40 15.5-42.5 38z"/></g><text transform="translate(11.704 -213.0833)"><tspan font-family="Montserrat-Thin" font-size="250" letter-spacing="-14" x="0" y="0">Back</tspan><tspan font-family="Montserrat-Medium" font-size="250" letter-spacing="-14" x="552.2" y="0">Of</tspan><tspan font-family="Montserrat-Medium" font-size="250" letter-spacing="-14" x="822" y="0">fi</tspan><tspan font-family="Montserrat-Medium" font-size="250" letter-spacing="-14" x="985.2" y="0">ce</tspan></text></svg>